<?xml version="1.0" encoding="utf-8"?>
<!-- Generator: Adobe Illustrator 25.2.0, SVG Export Plug-In . SVG Version: 6.00 Build 0)  -->
<svg version="1.1" id="Layer_1" xmlns="http://www.w3.org/2000/svg" xmlns:xlink="http://www.w3.org/1999/xlink" x="0px" y="0px"
	 viewBox="0 0 16 16" style="enable-background:new 0 0 16 16;" xml:space="preserve">
<style type="text/css">
	.st0{fill-rule:evenodd;clip-rule:evenodd;fill:#C98E00;}
	.st1{fill-rule:evenodd;clip-rule:evenodd;fill:#FFFFFF;}
	.st2{fill:none;}
	.st3{fill:#4D4D4D;}
	.st4{font-family:'ImprintMT-Shadow';}
	.st5{font-size:9px;}
</style>
<rect class="st0" width="16" height="16"/>
<path class="st1" d="M8.5,0.1C8.2,0,7.8,0,7.5,0.1l-6,3.6C1.2,3.9,1,4.2,1,4.6v6.8c0,0.4,0.2,0.7,0.5,0.9l6,3.6c0.3,0.2,0.7,0.2,1,0
	l6-3.6c0.3-0.2,0.5-0.5,0.5-0.9V4.6c0-0.4-0.2-0.7-0.5-0.9L8.5,0.1z"/>
<rect x="-35.8" y="-22.3" class="st2" width="88" height="60.2"/>
<text transform="matrix(1 0 0 1 1.8501 10.9541)" class="st3 st4 st5">AT</text>
</svg>
